<?xml version="1.0" encoding="UTF-8"?>
<svg id="Layer_2" data-name="Layer 2" xmlns="http://www.w3.org/2000/svg" viewBox="0 0 965.78 130.74">
  <defs>
    <style>
      .cls-1 {
        fill: #fff;
      }

      .cls-2 {
        fill: #444445;
      }

      .cls-3 {
        fill: #f8961d;
      }
    </style>
  </defs>
  <rect class="cls-3" x="143.55" width="822.23" height="29.94"/>
  <g>
    <polygon class="cls-2" points="112.95 13.23 120.57 .03 0 .03 0 33.11 0 35.19 0 35.27 43.88 111.27 57.69 87.36 50.6 75.08 43.88 86.72 13.2 33.58 13.2 13.23 112.95 13.23"/>
    <polygon class="cls-3" points="115.39 33.55 115.39 33.58 84.71 86.72 71.38 63.64 64.29 51.37 53.75 33.11 39.58 33.11 84.71 111.27 115.39 58.13 115.39 115.42 13.2 115.42 13.2 82.6 0 59.74 0 128.62 128.58 128.62 128.58 35.27 128.58 33.11 128.58 10.7 115.39 33.55"/>
    <polygon class="cls-2" points="64.29 51.37 71.38 63.64 75.42 56.64 68.29 44.45 64.29 51.37"/>
    <polygon class="cls-2" points="74.83 33.11 68.29 44.45 75.42 56.64 89.01 33.11 74.83 33.11"/>
  </g>
  <g>
    <path class="cls-1" d="M190.99,7.2l-7.51,12.28h-5.7l-5.05-8.32-5.21,8.32h-5.67l-7.54-12.28h5.51l5.18,8.63,5.41-8.63h4.92l5.25,8.7,5.34-8.7h5.08Z"/>
    <path class="cls-1" d="M218.38,15.53h-13.34c.49,1.18,2.36,1.9,5.05,1.9,1.87,0,3.21-.3,4.43-.91l2.72,1.58c-1.64,1-4.1,1.53-7.28,1.53-6.1,0-10.06-2.05-10.06-4.86s4.03-4.86,9.41-4.86,9.18,1.86,9.18,4.9c0,.21-.07,.51-.1,.74Zm-13.41-1.6h8.69c-.36-1.19-2.03-1.97-4.33-1.97s-4,.75-4.36,1.97Z"/>
    <path class="cls-1" d="M249.4,7.2h10.43c7.51,0,12.65,2.42,12.65,6.14s-5.15,6.14-12.65,6.14h-10.43V7.2Zm10.16,9.95c4.56,0,7.54-1.46,7.54-3.81s-2.98-3.81-7.54-3.81h-4.85v7.62h4.85Z"/>
    <path class="cls-1" d="M302.24,15.53h-13.34c.49,1.18,2.36,1.9,5.05,1.9,1.87,0,3.21-.3,4.43-.91l2.72,1.58c-1.64,1-4.1,1.53-7.28,1.53-6.1,0-10.06-2.05-10.06-4.86s4.03-4.86,9.41-4.86,9.18,1.86,9.18,4.9c0,.21-.07,.51-.1,.74Zm-13.41-1.6h8.69c-.36-1.19-2.03-1.97-4.33-1.97s-4,.75-4.36,1.97Z"/>
    <path class="cls-1" d="M331.86,10.04l-7.44,9.44h-5.28l-7.41-9.44h5.28l4.89,6.42,5.05-6.42h4.92Z"/>
    <path class="cls-1" d="M359.59,15.53h-13.34c.49,1.18,2.36,1.9,5.05,1.9,1.87,0,3.21-.3,4.43-.91l2.72,1.58c-1.64,1-4.1,1.53-7.28,1.53-6.1,0-10.06-2.05-10.06-4.86s4.03-4.86,9.41-4.86,9.18,1.86,9.18,4.9c0,.21-.07,.51-.1,.74Zm-13.41-1.6h8.69c-.36-1.19-2.03-1.97-4.33-1.97s-4,.75-4.36,1.97Z"/>
    <path class="cls-1" d="M372.03,6.46h5.12v13.02h-5.12V6.46Z"/>
    <path class="cls-1" d="M389.53,14.76c0-2.84,4.1-4.86,9.7-4.86s9.67,2.02,9.67,4.86-4.07,4.86-9.67,4.86-9.7-2.02-9.7-4.86Zm14.2,0c0-1.63-1.93-2.61-4.49-2.61s-4.52,.98-4.52,2.61,1.97,2.62,4.52,2.62,4.49-.98,4.49-2.62Z"/>
    <path class="cls-1" d="M440.47,14.76c0,2.97-3.84,4.86-8.79,4.86-2.2,0-4-.37-5.31-1.14v4.4h-5.12V10.04h4.89v1.09c1.28-.83,3.18-1.23,5.54-1.23,4.95,0,8.79,1.9,8.79,4.86Zm-5.18,0c0-1.63-1.93-2.61-4.49-2.61s-4.49,.98-4.49,2.61,1.93,2.62,4.49,2.62,4.49-.98,4.49-2.62Z"/>
    <path class="cls-1" d="M482.41,15.13v4.35h-5.31v-4.39l-8.89-7.9h5.64l6.13,5.46,6.13-5.46h5.21l-8.92,7.93Z"/>
    <path class="cls-1" d="M498.86,14.76c0-2.84,4.1-4.86,9.7-4.86s9.67,2.02,9.67,4.86-4.07,4.86-9.67,4.86-9.7-2.02-9.7-4.86Zm14.2,0c0-1.63-1.93-2.61-4.49-2.61s-4.52,.98-4.52,2.61,1.97,2.62,4.52,2.62,4.49-.98,4.49-2.62Z"/>
    <path class="cls-1" d="M548.35,10.04v9.44h-4.85v-1.12c-1.34,.83-3.31,1.26-5.48,1.26-4.42,0-7.54-1.33-7.54-4.25v-5.33h5.11v4.93c0,1.58,1.31,2.28,3.57,2.28s4.07-.81,4.07-2.54v-4.67h5.12Z"/>
    <path class="cls-1" d="M572.99,9.9v2.53c-.43-.02-.75-.04-1.15-.04-2.82,0-4.69,.82-4.69,2.63v4.46h-5.11V10.04h4.88v1.25c1.25-.91,3.34-1.39,6.06-1.39Z"/>
    <path class="cls-1" d="M603.69,7.2h10.43c7.51,0,12.65,2.42,12.65,6.14s-5.15,6.14-12.65,6.14h-10.43V7.2Zm10.16,9.95c4.56,0,7.54-1.46,7.54-3.81s-2.98-3.81-7.54-3.81h-4.85v7.62h4.85Z"/>
    <path class="cls-1" d="M650.3,9.9v2.53c-.43-.02-.75-.04-1.15-.04-2.82,0-4.69,.82-4.69,2.63v4.46h-5.11V10.04h4.88v1.25c1.25-.91,3.34-1.39,6.06-1.39Z"/>
    <path class="cls-1" d="M679.3,15.53h-13.34c.49,1.18,2.36,1.9,5.05,1.9,1.87,0,3.21-.3,4.43-.91l2.72,1.58c-1.64,1-4.1,1.53-7.28,1.53-6.1,0-10.06-2.05-10.06-4.86s4.03-4.86,9.41-4.86,9.18,1.86,9.18,4.9c0,.21-.07,.51-.1,.74Zm-13.41-1.6h8.69c-.36-1.19-2.03-1.97-4.33-1.97s-4,.75-4.36,1.97Z"/>
    <path class="cls-1" d="M706.86,14.09v5.39h-4.79v-1.18c-.95,.86-2.79,1.32-5.38,1.32-4.13,0-6.59-1.23-6.59-2.86s2.2-2.83,7.57-2.83h4.07c0-1.18-1.31-1.86-4.07-1.86-1.87,0-3.8,.33-5.08,.88l-1.84-1.91c1.93-.74,4.79-1.14,7.61-1.14,5.38,0,8.49,1.33,8.49,4.19Zm-5.11,2.4v-.96h-3.51c-2.39,0-3.15,.47-3.15,1.11,0,.68,1.08,1.14,2.88,1.14,1.71,0,3.18-.42,3.77-1.28Z"/>
    <path class="cls-1" d="M750.22,14.07v5.4h-5.11v-4.98c0-1.53-1.28-2.23-3.34-2.23-2.29,0-3.9,.79-3.9,2.47v4.74h-5.11v-4.98c0-1.53-1.21-2.23-3.34-2.23-2.26,0-3.87,.79-3.87,2.47v4.74h-5.11V10.04h4.88v1.09c1.31-.81,3.28-1.23,5.54-1.23,2.46,0,4.56,.51,5.8,1.54,1.41-.96,3.71-1.54,6.36-1.54,4.2,0,7.21,1.3,7.21,4.18Z"/>
    <path class="cls-1" d="M802.23,11.65c0,2.74-3.84,4.44-9.97,4.44h-4.62v3.39h-5.31V7.2h9.93c6.13,0,9.97,1.7,9.97,4.46Zm-5.38,0c0-1.35-1.64-2.14-4.89-2.14h-4.33v4.26h4.33c3.25,0,4.89-.79,4.89-2.12Z"/>
    <path class="cls-1" d="M825.53,9.9v2.53c-.43-.02-.75-.04-1.15-.04-2.82,0-4.69,.82-4.69,2.63v4.46h-5.11V10.04h4.88v1.25c1.25-.91,3.34-1.39,6.06-1.39Z"/>
    <path class="cls-1" d="M836.04,14.76c0-2.84,4.1-4.86,9.7-4.86s9.67,2.02,9.67,4.86-4.07,4.86-9.67,4.86-9.7-2.02-9.7-4.86Zm14.19,0c0-1.63-1.93-2.61-4.49-2.61s-4.52,.98-4.52,2.61,1.97,2.62,4.52,2.62,4.49-.98,4.49-2.62Z"/>
    <path class="cls-1" d="M862.35,22.5l1.38-1.98c.56,.21,1.31,.33,2.16,.33,1.28,0,2.1-.44,2.1-1.37V10.04h5.11v9.42c0,2.18-2.39,3.56-6.66,3.56-1.57,0-3.11-.16-4.1-.53Zm5.02-15.3c0-.86,1.28-1.53,3.18-1.53s3.18,.63,3.18,1.47c0,.91-1.28,1.58-3.18,1.58s-3.18-.67-3.18-1.53Z"/>
    <path class="cls-1" d="M903.95,15.53h-13.34c.49,1.18,2.36,1.9,5.05,1.9,1.87,0,3.21-.3,4.43-.91l2.72,1.58c-1.64,1-4.1,1.53-7.28,1.53-6.1,0-10.06-2.05-10.06-4.86s4.03-4.86,9.41-4.86,9.18,1.86,9.18,4.9c0,.21-.07,.51-.1,.74Zm-13.41-1.6h8.69c-.36-1.19-2.03-1.97-4.33-1.97s-4,.75-4.36,1.97Z"/>
    <path class="cls-1" d="M915.09,14.76c0-2.84,4.1-4.86,9.84-4.86,3.7,0,6.62,.86,7.9,2.4l-3.97,1.14c-.95-.9-2.36-1.3-3.97-1.3-2.59,0-4.62,.96-4.62,2.61s2.03,2.62,4.62,2.62c1.61,0,3.02-.39,3.97-1.3l3.97,1.16c-1.28,1.51-4.2,2.39-7.9,2.39-5.74,0-9.84-2.02-9.84-4.86Z"/>
    <path class="cls-1" d="M956.35,19.02c-1.05,.4-2.59,.6-4.16,.6-4.16,0-6.59-1.14-6.59-3.39v-3.88h-2.72v-2.11h2.72v-2.3h5.11v2.3h4.39v2.11h-4.39v3.84c0,.81,.82,1.25,2.2,1.25,.75,0,1.51-.12,2.07-.35l1.38,1.93Z"/>
  </g>
  <path class="cls-2" d="M212.53,84.79c7.76-3.88,11.76-10.43,11.76-18.31,0-5.78-2.22-10.85-6.78-14.68l-38.48,44.03h10.93c6.31,0,9.46,2.3,9.46,6.67s-3.15,6.67-9.46,6.67h-17.22v-6.15l-22.86,26.16h42.51c23.41,0,35.9-8.61,35.9-23.41,0-10.07-5.82-17.34-15.77-20.98Z"/>
  <path class="cls-3" d="M184.95,76.91h-12.2v-12.61h13.34c3.84,0,6.42,.79,7.88,2.29l16.54-18.92c-5.27-2.16-12.08-3.38-20.53-3.38h-45.36V123.06l40.33-46.15Z"/>
  <path class="cls-2" d="M238.05,119.3l8.61-18.38c8.3,5.48,17.75,9.86,26.37,9.86,4.83,0,8.19-2.07,8.19-5.6,0-4.62-3.89-5.96-12.29-8.03-16.91-4.02-29.1-10.83-29.1-27.99s13.76-27.02,31.2-27.02c11.97,0,22.48,3.65,30.67,11.44l-10.19,16.19c-5.88-4.87-13.13-7.67-19.96-7.67-5.25,0-8.61,1.46-8.61,5.6,0,3.41,3.05,5.72,12.08,7.91,18.91,4.5,29.1,10.83,29.1,27.02,0,17.77-13.76,28.11-31.51,28.11-14.29,0-26.58-4.75-34.56-11.44Z"/>
  <path class="cls-2" d="M312,86.56c0-25.68,17.02-44.42,40.55-44.42s40.55,18.62,40.55,44.18-17.12,44.42-40.65,44.42-40.44-18.62-40.44-44.18Zm57.56,0c0-12.9-7.04-21.91-17.02-21.91s-17.02,8.88-17.02,21.79,7.04,21.66,17.02,21.66,17.02-8.76,17.02-21.54Z"/>
  <path class="cls-2" d="M466.61,65.14h-38.66v15.82h34.03v19.96h-34.03v28.11h-22.9V43.85h61.55v21.3Z"/>
  <path class="cls-2" d="M540.24,43.85v22.03h-21.95v63.16h-23v-63.16h-21.85v-22.03h66.81Z"/>
  <path class="cls-2" d="M641.61,43.85h24.16l-24.16,85.19h-23.42l-12.29-49.05-12.29,49.05h-23.32l-24.37-85.19h24.16l13.87,52.58,12.82-52.58h18.17l13.03,52.58,13.66-52.58Z"/>
  <path class="cls-2" d="M717.13,129.04l-4.2-12.9h-29.83l-4.31,12.9h-23.74l31.62-85.19h22.9l31.62,85.19h-24.05Zm-28.05-31.03h17.86l-8.82-27.02-9.03,27.02Z"/>
  <path class="cls-2" d="M793.8,129.04l-15.23-24.1h-6.2v24.1h-22.9V43.85h33.61c21.01,0,33.93,11.56,33.93,30.67,0,12.78-5.67,22.03-15.65,26.77l17.65,27.75h-25.21Zm-21.43-64.02v20.2h10.08c7.14,0,11.66-3.41,11.66-10.22,0-6.45-4.52-9.98-11.66-9.98h-10.08Z"/>
  <path class="cls-2" d="M850.31,108.11h40.97v20.93h-63.34V43.85h62.39v20.93h-40.02v11.44h34.87v19.11h-34.87v12.78Z"/>
  <path class="cls-2" d="M898.42,119.3l8.61-18.38c8.3,5.48,17.75,9.86,26.37,9.86,4.83,0,8.19-2.07,8.19-5.6,0-4.62-3.89-5.96-12.29-8.03-16.91-4.02-29.1-10.83-29.1-27.99s13.76-27.02,31.2-27.02c11.97,0,22.48,3.65,30.67,11.44l-10.19,16.19c-5.88-4.87-13.13-7.67-19.96-7.67-5.25,0-8.61,1.46-8.61,5.6,0,3.41,3.05,5.72,12.08,7.91,18.91,4.5,29.1,10.83,29.1,27.02,0,17.77-13.76,28.11-31.51,28.11-14.29,0-26.58-4.75-34.56-11.44Z"/>
</svg>